<mxfile host="Electron" agent="Mozilla/5.0 (Windows NT 10.0; Win64; x64) AppleWebKit/537.36 (KHTML, like Gecko) draw.io/24.7.17 Chrome/128.0.6613.36 Electron/32.0.1 Safari/537.36" version="24.7.17">
  <diagram id="Dph-WKqFkl66xCKW0Mi4" name="Página-1">
    <mxGraphModel dx="1434" dy="844" grid="1" gridSize="10" guides="1" tooltips="1" connect="1" arrows="1" fold="1" page="1" pageScale="1" pageWidth="827" pageHeight="1169" math="0" shadow="0">
      <root>
        <mxCell id="0" />
        <mxCell id="1" parent="0" />
        <mxCell id="NyRInkevITMn1MQ5TwHw-1" value="Usuário" style="shape=umlActor;verticalLabelPosition=bottom;verticalAlign=top;html=1;outlineConnect=0;" parent="1" vertex="1">
          <mxGeometry x="210" y="91" width="30" height="60" as="geometry" />
        </mxCell>
        <mxCell id="NyRInkevITMn1MQ5TwHw-2" value="Sistema" style="rounded=0;whiteSpace=wrap;html=1;" parent="1" vertex="1">
          <mxGeometry x="515" y="137" width="80" height="30" as="geometry" />
        </mxCell>
        <mxCell id="NyRInkevITMn1MQ5TwHw-3" value="" style="endArrow=none;dashed=1;html=1;rounded=0;" parent="1" edge="1">
          <mxGeometry width="50" height="50" relative="1" as="geometry">
            <mxPoint x="224" y="780" as="sourcePoint" />
            <mxPoint x="224" y="171" as="targetPoint" />
          </mxGeometry>
        </mxCell>
        <mxCell id="NyRInkevITMn1MQ5TwHw-4" value="" style="endArrow=none;dashed=1;html=1;rounded=0;" parent="1" source="Tc6PJCGQQ1Yv_YsnGDqe-2" edge="1">
          <mxGeometry width="50" height="50" relative="1" as="geometry">
            <mxPoint x="555" y="732" as="sourcePoint" />
            <mxPoint x="555" y="172" as="targetPoint" />
          </mxGeometry>
        </mxCell>
        <mxCell id="NyRInkevITMn1MQ5TwHw-8" value="" style="endArrow=none;dashed=1;html=1;rounded=0;" parent="1" edge="1">
          <mxGeometry width="50" height="50" relative="1" as="geometry">
            <mxPoint x="555" y="795" as="sourcePoint" />
            <mxPoint x="555" y="349" as="targetPoint" />
          </mxGeometry>
        </mxCell>
        <mxCell id="NyRInkevITMn1MQ5TwHw-12" value="&lt;font style=&quot;font-size: 14px;&quot;&gt;Diagrama de Sequência do Sistema de Registrar um Produto&lt;/font&gt;" style="text;html=1;align=center;verticalAlign=middle;resizable=0;points=[];autosize=1;strokeColor=none;fillColor=none;fontStyle=1" parent="1" vertex="1">
          <mxGeometry x="204" y="31" width="400" height="30" as="geometry" />
        </mxCell>
        <mxCell id="NyRInkevITMn1MQ5TwHw-13" value="" style="endArrow=classic;html=1;rounded=0;" parent="1" edge="1">
          <mxGeometry width="50" height="50" relative="1" as="geometry">
            <mxPoint x="224" y="365" as="sourcePoint" />
            <mxPoint x="549" y="365" as="targetPoint" />
          </mxGeometry>
        </mxCell>
        <mxCell id="NyRInkevITMn1MQ5TwHw-14" value="Entrar Produto (Nome, preço, descrição e quantidade)" style="text;html=1;align=center;verticalAlign=middle;resizable=0;points=[];autosize=1;strokeColor=none;fillColor=none;" parent="1" vertex="1">
          <mxGeometry x="235" y="343" width="310" height="30" as="geometry" />
        </mxCell>
        <mxCell id="NyRInkevITMn1MQ5TwHw-15" value="" style="rounded=0;whiteSpace=wrap;html=1;rotation=90;" parent="1" vertex="1">
          <mxGeometry x="377.36" y="537.65" width="355.3" height="10" as="geometry" />
        </mxCell>
        <mxCell id="NyRInkevITMn1MQ5TwHw-16" value="Alternativa" style="shape=umlFrame;whiteSpace=wrap;html=1;pointerEvents=0;width=70;height=30;" parent="1" vertex="1">
          <mxGeometry x="130" y="384" width="520" height="310" as="geometry" />
        </mxCell>
        <mxCell id="NyRInkevITMn1MQ5TwHw-17" value="Se o produto já existe" style="text;html=1;align=center;verticalAlign=middle;resizable=0;points=[];autosize=1;strokeColor=none;fillColor=none;" parent="1" vertex="1">
          <mxGeometry x="214" y="383" width="140" height="30" as="geometry" />
        </mxCell>
        <mxCell id="NyRInkevITMn1MQ5TwHw-18" value="Laço" style="shape=umlFrame;whiteSpace=wrap;html=1;pointerEvents=0;width=70;height=30;" parent="1" vertex="1">
          <mxGeometry x="200" y="413" width="390" height="121" as="geometry" />
        </mxCell>
        <mxCell id="NyRInkevITMn1MQ5TwHw-19" value="Enquanto o produto existir" style="text;html=1;align=center;verticalAlign=middle;resizable=0;points=[];autosize=1;strokeColor=none;fillColor=none;" parent="1" vertex="1">
          <mxGeometry x="265" y="413" width="160" height="30" as="geometry" />
        </mxCell>
        <mxCell id="NyRInkevITMn1MQ5TwHw-20" value="" style="endArrow=none;dashed=1;html=1;rounded=0;endFill=0;startArrow=openThin;startFill=0;" parent="1" edge="1">
          <mxGeometry width="50" height="50" relative="1" as="geometry">
            <mxPoint x="222" y="470" as="sourcePoint" />
            <mxPoint x="550" y="470" as="targetPoint" />
          </mxGeometry>
        </mxCell>
        <mxCell id="NyRInkevITMn1MQ5TwHw-21" value="Retorna uma mensagem de aviso" style="text;html=1;align=center;verticalAlign=middle;resizable=0;points=[];autosize=1;strokeColor=none;fillColor=none;" parent="1" vertex="1">
          <mxGeometry x="289" y="450" width="200" height="30" as="geometry" />
        </mxCell>
        <mxCell id="NyRInkevITMn1MQ5TwHw-22" value="" style="endArrow=classic;html=1;rounded=0;" parent="1" edge="1">
          <mxGeometry width="50" height="50" relative="1" as="geometry">
            <mxPoint x="225" y="515" as="sourcePoint" />
            <mxPoint x="550" y="515" as="targetPoint" />
          </mxGeometry>
        </mxCell>
        <mxCell id="NyRInkevITMn1MQ5TwHw-23" value="Entrar novamente com os dados" style="text;html=1;align=center;verticalAlign=middle;resizable=0;points=[];autosize=1;strokeColor=none;fillColor=none;" parent="1" vertex="1">
          <mxGeometry x="286" y="494" width="200" height="30" as="geometry" />
        </mxCell>
        <mxCell id="NyRInkevITMn1MQ5TwHw-24" value="" style="endArrow=none;dashed=1;html=1;rounded=0;exitX=0;exitY=0.655;exitDx=0;exitDy=0;exitPerimeter=0;entryX=1;entryY=0.655;entryDx=0;entryDy=0;entryPerimeter=0;" parent="1" source="NyRInkevITMn1MQ5TwHw-16" target="NyRInkevITMn1MQ5TwHw-16" edge="1">
          <mxGeometry width="50" height="50" relative="1" as="geometry">
            <mxPoint x="390" y="584" as="sourcePoint" />
            <mxPoint x="440" y="534" as="targetPoint" />
          </mxGeometry>
        </mxCell>
        <mxCell id="NyRInkevITMn1MQ5TwHw-25" value="Se o produto não existe" style="text;html=1;align=center;verticalAlign=middle;resizable=0;points=[];autosize=1;strokeColor=none;fillColor=none;" parent="1" vertex="1">
          <mxGeometry x="216" y="583" width="150" height="30" as="geometry" />
        </mxCell>
        <mxCell id="NyRInkevITMn1MQ5TwHw-27" value="" style="endArrow=none;dashed=1;html=1;rounded=0;endFill=0;startArrow=openThin;startFill=0;" parent="1" edge="1">
          <mxGeometry width="50" height="50" relative="1" as="geometry">
            <mxPoint x="223" y="720" as="sourcePoint" />
            <mxPoint x="553" y="720" as="targetPoint" />
          </mxGeometry>
        </mxCell>
        <mxCell id="NyRInkevITMn1MQ5TwHw-28" value="Avisa que o produto foi registrado e mostra seu ID" style="text;html=1;align=center;verticalAlign=middle;resizable=0;points=[];autosize=1;strokeColor=none;fillColor=none;" parent="1" vertex="1">
          <mxGeometry x="241" y="700" width="290" height="30" as="geometry" />
        </mxCell>
        <mxCell id="Tc6PJCGQQ1Yv_YsnGDqe-1" value="" style="endArrow=classic;html=1;rounded=0;" edge="1" parent="1">
          <mxGeometry width="50" height="50" relative="1" as="geometry">
            <mxPoint x="223.5" y="210" as="sourcePoint" />
            <mxPoint x="548.5" y="210" as="targetPoint" />
          </mxGeometry>
        </mxCell>
        <mxCell id="Tc6PJCGQQ1Yv_YsnGDqe-3" value="" style="endArrow=none;dashed=1;html=1;rounded=0;" edge="1" parent="1" target="Tc6PJCGQQ1Yv_YsnGDqe-2">
          <mxGeometry width="50" height="50" relative="1" as="geometry">
            <mxPoint x="555" y="351" as="sourcePoint" />
            <mxPoint x="555" y="172" as="targetPoint" />
          </mxGeometry>
        </mxCell>
        <mxCell id="Tc6PJCGQQ1Yv_YsnGDqe-2" value="" style="rounded=0;whiteSpace=wrap;html=1;rotation=90;" vertex="1" parent="1">
          <mxGeometry x="535" y="224" width="40" height="10" as="geometry" />
        </mxCell>
        <mxCell id="Tc6PJCGQQ1Yv_YsnGDqe-4" value="" style="endArrow=none;dashed=1;html=1;rounded=0;endFill=0;startArrow=openThin;startFill=0;" edge="1" parent="1">
          <mxGeometry width="50" height="50" relative="1" as="geometry">
            <mxPoint x="223" y="249" as="sourcePoint" />
            <mxPoint x="553" y="249" as="targetPoint" />
          </mxGeometry>
        </mxCell>
        <mxCell id="Tc6PJCGQQ1Yv_YsnGDqe-5" value="Vai para o menu de Sessão de Produtos" style="text;html=1;align=center;verticalAlign=middle;resizable=0;points=[];autosize=1;strokeColor=none;fillColor=none;" vertex="1" parent="1">
          <mxGeometry x="273" y="189" width="240" height="30" as="geometry" />
        </mxCell>
        <mxCell id="Tc6PJCGQQ1Yv_YsnGDqe-6" value="Abre o menu de Sessão de Produtos" style="text;html=1;align=center;verticalAlign=middle;resizable=0;points=[];autosize=1;strokeColor=none;fillColor=none;" vertex="1" parent="1">
          <mxGeometry x="284" y="227" width="220" height="30" as="geometry" />
        </mxCell>
        <mxCell id="Tc6PJCGQQ1Yv_YsnGDqe-7" value="" style="endArrow=classic;html=1;rounded=0;" edge="1" parent="1">
          <mxGeometry width="50" height="50" relative="1" as="geometry">
            <mxPoint x="223.5" y="280" as="sourcePoint" />
            <mxPoint x="548.5" y="280" as="targetPoint" />
          </mxGeometry>
        </mxCell>
        <mxCell id="Tc6PJCGQQ1Yv_YsnGDqe-8" value="" style="rounded=0;whiteSpace=wrap;html=1;rotation=90;" vertex="1" parent="1">
          <mxGeometry x="535" y="294" width="40" height="10" as="geometry" />
        </mxCell>
        <mxCell id="Tc6PJCGQQ1Yv_YsnGDqe-9" value="" style="endArrow=none;dashed=1;html=1;rounded=0;endFill=0;startArrow=openThin;startFill=0;" edge="1" parent="1">
          <mxGeometry width="50" height="50" relative="1" as="geometry">
            <mxPoint x="223" y="319" as="sourcePoint" />
            <mxPoint x="553" y="319" as="targetPoint" />
          </mxGeometry>
        </mxCell>
        <mxCell id="Tc6PJCGQQ1Yv_YsnGDqe-10" value="As informaçãoes do produto são solicitadas" style="text;html=1;align=center;verticalAlign=middle;resizable=0;points=[];autosize=1;strokeColor=none;fillColor=none;" vertex="1" parent="1">
          <mxGeometry x="259" y="294" width="260" height="30" as="geometry" />
        </mxCell>
        <mxCell id="Tc6PJCGQQ1Yv_YsnGDqe-11" value="Seleciona a opção de Registrar Produto" style="text;html=1;align=center;verticalAlign=middle;resizable=0;points=[];autosize=1;strokeColor=none;fillColor=none;" vertex="1" parent="1">
          <mxGeometry x="269" y="257" width="240" height="30" as="geometry" />
        </mxCell>
      </root>
    </mxGraphModel>
  </diagram>
</mxfile>
